<svg xmlns="http://www.w3.org/2000/svg" width="72" height="72" viewBox="0 0 512 512">
  <defs>
    <linearGradient id="bg" x1="0%" y1="0%" x2="100%" y2="100%">
      <stop offset="0%" style="stop-color:#1e3a5f;stop-opacity:1" />
      <stop offset="100%" style="stop-color:#020617;stop-opacity:1" />
    </linearGradient>
    <linearGradient id="plane" x1="0%" y1="0%" x2="100%" y2="100%">
      <stop offset="0%" style="stop-color:#3b82f6;stop-opacity:1" />
      <stop offset="100%" style="stop-color:#06b6d4;stop-opacity:1" />
    </linearGradient>
  </defs>
  <rect width="512" height="512" rx="96" fill="url(#bg)"/>
  <g transform="translate(256,256) rotate(-45)">
    <path d="M-20,-120 L0,-140 L20,-120 L20,-20 L80,40 L80,60 L20,20 L20,80 L40,100 L40,115 L0,100 L-40,115 L-40,100 L-20,80 L-20,20 L-80,60 L-80,40 L-20,-20 Z" fill="url(#plane)"/>
  </g>
  <circle cx="256" cy="420" r="4" fill="#3b82f6" opacity="0.6"/>
  <circle cx="220" cy="430" r="3" fill="#06b6d4" opacity="0.4"/>
  <circle cx="292" cy="425" r="3" fill="#60a5fa" opacity="0.5"/>
</svg>
